<?xml version="1.0" standalone="no"?>
<!DOCTYPE svg PUBLIC "-//W3C//DTD SVG 20010904//EN"
 "http://www.w3.org/TR/2001/REC-SVG-20010904/DTD/svg10.dtd">
<svg version="1.0" xmlns="http://www.w3.org/2000/svg"
 width="84.000000pt" height="84.000000pt" viewBox="0 0 84.000000 84.000000"
 preserveAspectRatio="xMidYMid meet">
<metadata>
Created by potrace 1.14, written by Peter Selinger 2001-2017
</metadata>
<g transform="translate(0.000000,84.000000) scale(0.100000,-0.100000)"
fill="#000000" stroke="none">
<path d="M138 423 c-71 -186 -128 -342 -128 -346 0 -4 31 -7 69 -7 l69 0 28
80 29 80 67 0 68 0 0 -80 0 -80 146 0 c172 0 219 10 275 58 48 41 69 84 69
142 0 79 -52 150 -120 165 l-31 7 44 28 c108 68 102 211 -11 263 -42 20 -66
22 -247 25 l-200 3 -127 -338z m481 222 c48 -24 56 -86 17 -132 -21 -24 -32
-28 -95 -31 l-71 -4 0 91 0 91 60 0 c34 0 74 -7 89 -15z m-279 -155 l0 -150
-51 0 c-36 0 -49 4 -46 13 2 6 24 74 48 149 24 76 45 138 47 138 1 0 2 -67 2
-150z m300 -125 c36 -19 50 -43 50 -90 0 -74 -46 -105 -156 -105 l-64 0 0 105
0 105 70 0 c44 0 82 -6 100 -15z"/>
</g>
</svg>
